<?xml version="1.0" encoding="UTF-8"?>
<svg width="32px" height="33px" viewBox="0 0 32 33" version="1.1" xmlns="http://www.w3.org/2000/svg" xmlns:xlink="http://www.w3.org/1999/xlink">
    <title>Pointers/Hand (Pointing)</title>
    <g id="Pointers/Hand-(Pointing)" stroke="none" fill="none" fill-rule="evenodd">
        <path d="M19.301,31.942 C20.359,31.942 21.279,31.722 22.059,31.281 C22.841,30.84 23.445,30.195 23.87,29.343 C24.296,28.491 24.509,27.449 24.509,26.214 L24.509,24.564 C24.509,23.797 24.389,23.208 24.149,22.794 C23.909,22.381 23.563,22.174 23.114,22.174 L23.114,23.268 C23.114,23.42 23.063,23.542 22.963,23.633 C22.862,23.724 22.749,23.769 22.621,23.769 C22.487,23.769 22.37,23.724 22.27,23.633 C22.169,23.542 22.119,23.42 22.119,23.268 L22.119,21.909 C22.119,21.636 22.049,21.424 21.91,21.275 C21.769,21.126 21.572,21.052 21.316,21.052 C21.116,21.052 20.918,21.095 20.724,21.18 L20.724,22.913 C20.724,23.071 20.673,23.195 20.573,23.287 C20.472,23.378 20.359,23.423 20.231,23.423 C20.097,23.423 19.98,23.378 19.88,23.287 C19.779,23.195 19.729,23.071 19.729,22.913 L19.729,20.906 C19.729,20.639 19.658,20.427 19.515,20.272 C19.372,20.117 19.179,20.039 18.936,20.039 C18.729,20.039 18.528,20.085 18.334,20.176 L18.334,22.566 C18.334,22.706 18.287,22.825 18.192,22.922 C18.098,23.019 17.978,23.068 17.832,23.068 C17.692,23.068 17.575,23.019 17.481,22.922 C17.387,22.825 17.339,22.706 17.339,22.566 L17.339,15.981 C17.339,15.756 17.277,15.575 17.152,15.438 C17.028,15.301 16.859,15.233 16.646,15.233 C16.433,15.233 16.262,15.301 16.131,15.438 C16,15.575 15.935,15.756 15.935,15.981 L15.935,25.257 C15.935,25.452 15.877,25.611 15.762,25.736 C15.646,25.86 15.5,25.922 15.324,25.922 C15.165,25.922 15.024,25.883 14.9,25.804 C14.775,25.725 14.67,25.579 14.585,25.366 L13.363,22.575 C13.211,22.21 12.982,22.028 12.679,22.028 C12.484,22.028 12.326,22.09 12.204,22.215 C12.082,22.339 12.022,22.49 12.022,22.666 C12.022,22.812 12.049,22.958 12.104,23.104 L13.737,27.701 C14.271,29.191 15.014,30.269 15.962,30.939 C16.911,31.608 18.024,31.942 19.301,31.942 M19.265,33 C17.707,33 16.383,32.583 15.292,31.751 C14.2,30.918 13.366,29.68 12.788,28.038 L11.155,23.432 C11.106,23.287 11.069,23.135 11.041,22.976 C11.014,22.818 11,22.675 11,22.548 C11,22.073 11.158,21.706 11.475,21.444 C11.79,21.183 12.162,21.052 12.587,21.052 C12.898,21.052 13.177,21.142 13.427,21.321 C13.676,21.5 13.876,21.77 14.029,22.128 L14.749,23.907 C14.767,23.949 14.795,23.97 14.831,23.97 C14.88,23.97 14.904,23.943 14.904,23.889 L14.904,16.044 C14.904,15.491 15.068,15.052 15.397,14.726 C15.725,14.401 16.141,14.238 16.646,14.238 C17.145,14.238 17.557,14.401 17.882,14.726 C18.207,15.052 18.37,15.491 18.37,16.044 L18.37,19.155 C18.607,19.088 18.838,19.054 19.064,19.054 C19.453,19.054 19.784,19.156 20.058,19.36 C20.331,19.564 20.523,19.842 20.633,20.195 C20.912,20.098 21.186,20.049 21.454,20.049 C21.83,20.049 22.148,20.144 22.406,20.336 C22.665,20.527 22.843,20.787 22.94,21.116 C23.766,21.122 24.407,21.414 24.86,21.991 C25.313,22.569 25.54,23.381 25.54,24.426 L25.54,26.333 C25.54,27.743 25.275,28.946 24.746,29.94 C24.217,30.935 23.481,31.692 22.539,32.216 C21.596,32.739 20.505,33 19.265,33" id="Path" fill="#000000"></path>
        <path d="M19.301,31.942 C20.359,31.942 21.279,31.722 22.059,31.281 C22.841,30.84 23.445,30.195 23.87,29.343 C24.296,28.491 24.509,27.449 24.509,26.214 L24.509,24.564 C24.509,23.797 24.389,23.208 24.149,22.794 C23.909,22.381 23.563,22.174 23.114,22.174 L23.114,23.268 C23.114,23.42 23.063,23.542 22.963,23.633 C22.862,23.724 22.749,23.769 22.621,23.769 C22.487,23.769 22.37,23.724 22.27,23.633 C22.169,23.542 22.119,23.42 22.119,23.268 L22.119,21.909 C22.119,21.636 22.049,21.424 21.91,21.275 C21.769,21.126 21.572,21.052 21.316,21.052 C21.116,21.052 20.918,21.095 20.724,21.18 L20.724,22.913 C20.724,23.071 20.673,23.195 20.573,23.287 C20.472,23.378 20.359,23.423 20.231,23.423 C20.097,23.423 19.98,23.378 19.88,23.287 C19.779,23.195 19.729,23.071 19.729,22.913 L19.729,20.906 C19.729,20.639 19.658,20.427 19.515,20.272 C19.372,20.117 19.179,20.039 18.936,20.039 C18.729,20.039 18.528,20.085 18.334,20.176 L18.334,22.566 C18.334,22.706 18.287,22.825 18.192,22.922 C18.098,23.019 17.978,23.068 17.832,23.068 C17.692,23.068 17.575,23.019 17.481,22.922 C17.387,22.825 17.339,22.706 17.339,22.566 L17.339,15.981 C17.339,15.756 17.277,15.575 17.152,15.438 C17.028,15.301 16.859,15.233 16.646,15.233 C16.433,15.233 16.262,15.301 16.131,15.438 C16,15.575 15.935,15.756 15.935,15.981 L15.935,25.257 C15.935,25.452 15.877,25.611 15.762,25.736 C15.646,25.86 15.5,25.922 15.324,25.922 C15.165,25.922 15.024,25.883 14.9,25.804 C14.775,25.725 14.67,25.579 14.585,25.366 L13.363,22.575 C13.211,22.21 12.982,22.028 12.679,22.028 C12.484,22.028 12.326,22.09 12.204,22.215 C12.082,22.339 12.022,22.49 12.022,22.666 C12.022,22.812 12.049,22.958 12.104,23.104 L13.737,27.701 C14.271,29.191 15.014,30.269 15.962,30.939 C16.911,31.608 18.024,31.942 19.301,31.942" id="Path" fill="#FFFFFF"></path>
    </g>
</svg>